<?xml version="1.0" standalone="no"?>
<!DOCTYPE svg PUBLIC "-//W3C//DTD SVG 20010904//EN"
 "http://www.w3.org/TR/2001/REC-SVG-20010904/DTD/svg10.dtd">
<svg version="1.0" xmlns="http://www.w3.org/2000/svg"
 width="512.000000pt" height="512.000000pt" viewBox="0 0 512.000000 512.000000"
 preserveAspectRatio="xMidYMid meet">
<metadata>
Created by potrace 1.11, written by Peter Selinger 2001-2013
</metadata>
<g transform="translate(0.000000,512.000000) scale(0.100000,-0.100000)"
fill="#000000" stroke="none">
<path d="M2246 5024 c-712 -91 -1357 -496 -1751 -1099 -40 -60 -85 -133 -101
-162 -27 -50 -28 -53 -15 -105 31 -120 103 -259 219 -423 54 -76 340 -375 358
-375 5 0 22 26 39 58 44 85 168 266 246 359 355 421 783 658 1299 718 156 19
241 14 413 -21 514 -107 861 -394 1042 -862 55 -144 98 -302 160 -597 62 -293
91 -397 137 -490 43 -85 87 -136 149 -170 51 -28 61 -30 164 -30 102 0 114 2
168 30 111 56 199 184 249 361 21 73 22 101 23 349 0 300 -9 383 -70 620 -173
678 -648 1269 -1275 1587 -271 138 -514 212 -823 253 -147 19 -478 18 -631 -1z"/>
<path d="M2532 3385 c-105 -25 -200 -82 -298 -180 -77 -76 -98 -105 -138 -185
-83 -169 -97 -333 -42 -505 77 -241 302 -461 531 -520 76 -19 204 -19 279 0
208 54 398 239 478 465 28 78 35 253 14 342 -64 274 -318 533 -574 587 -69 14
-183 13 -250 -4z"/>
<path d="M152 3137 c-131 -569 -69 -1141 177 -1652 124 -258 259 -451 456
-654 404 -416 919 -671 1500 -742 129 -16 441 -16 570 0 447 55 859 221 1222
492 134 100 370 339 475 479 81 108 203 298 196 305 -2 2 -30 -1 -63 -7 -140
-23 -335 22 -468 108 -169 109 -307 310 -364 528 -15 57 -16 70 -4 98 40 96
74 201 88 263 35 169 35 391 -1 535 -13 54 -13 53 -8 -61 14 -311 -81 -628
-266 -889 -26 -36 -143 -164 -262 -285 -251 -256 -591 -613 -670 -703 -30 -34
-58 -62 -61 -62 -8 0 -802 826 -889 925 -196 222 -314 510 -328 805 l-7 134
-42 -64 c-178 -276 -266 -640 -249 -1040 3 -85 13 -200 21 -254 8 -55 15 -101
15 -103 0 -1 -121 -3 -268 -3 l-268 0 82 537 c45 296 82 539 81 540 -1 1 -36
24 -77 51 -172 113 -332 284 -432 462 -38 68 -95 217 -109 288 -7 34 -16 62
-19 62 -4 0 -16 -42 -28 -93z"/>
</g>
</svg>
